<svg width="575" height="285" viewBox="0 0 575 285" fill="none" xmlns="http://www.w3.org/2000/svg">
<circle cx="46.5" cy="46.5" r="45.5" fill="white" stroke="black" stroke-width="2"/>
<path d="M22.5646 41V32.2727H25.6158C26.2237 32.2727 26.7251 32.3778 27.12 32.5881C27.5149 32.7955 27.8089 33.0753 28.0021 33.4276C28.1953 33.777 28.2919 34.1648 28.2919 34.5909C28.2919 34.9659 28.2251 35.2756 28.0916 35.5199C27.9609 35.7642 27.7876 35.9574 27.5717 36.0994C27.3587 36.2415 27.1271 36.3466 26.8771 36.4148V36.5C27.1442 36.517 27.4126 36.6108 27.6825 36.7812C27.9524 36.9517 28.1783 37.196 28.3601 37.5142C28.5419 37.8324 28.6328 38.2216 28.6328 38.6818C28.6328 39.1193 28.5334 39.5128 28.3345 39.8622C28.1357 40.2116 27.8217 40.4886 27.3928 40.6932C26.9638 40.8977 26.4055 41 25.718 41H22.5646ZM23.6214 40.0625H25.718C26.4084 40.0625 26.8984 39.929 27.1882 39.6619C27.4808 39.392 27.6271 39.0653 27.6271 38.6818C27.6271 38.3864 27.5518 38.1136 27.4013 37.8636C27.2507 37.6108 27.0362 37.4091 26.7578 37.2585C26.4794 37.1051 26.1499 37.0284 25.7692 37.0284H23.6214V40.0625ZM23.6214 36.108H25.5817C25.8999 36.108 26.1868 36.0455 26.4425 35.9205C26.701 35.7955 26.9055 35.6193 27.0561 35.392C27.2095 35.1648 27.2862 34.8977 27.2862 34.5909C27.2862 34.2074 27.1527 33.8821 26.8857 33.6151C26.6186 33.3452 26.1953 33.2102 25.6158 33.2102H23.6214V36.108ZM32.1591 41.1534C31.7443 41.1534 31.3679 41.0753 31.0298 40.919C30.6918 40.7599 30.4233 40.5312 30.2244 40.233C30.0256 39.9318 29.9261 39.5682 29.9261 39.142C29.9261 38.767 30 38.4631 30.1477 38.2301C30.2955 37.9943 30.4929 37.8097 30.7401 37.6761C30.9872 37.5426 31.2599 37.4432 31.5582 37.3778C31.8594 37.3097 32.1619 37.2557 32.4659 37.2159C32.8636 37.1648 33.1861 37.1264 33.4332 37.1009C33.6832 37.0724 33.8651 37.0256 33.9787 36.9602C34.0952 36.8949 34.1534 36.7812 34.1534 36.6193V36.5852C34.1534 36.1648 34.0384 35.8381 33.8082 35.6051C33.581 35.3722 33.2358 35.2557 32.7727 35.2557C32.2926 35.2557 31.9162 35.3608 31.6435 35.571C31.3707 35.7812 31.179 36.0057 31.0682 36.2443L30.1136 35.9034C30.2841 35.5057 30.5114 35.196 30.7955 34.9744C31.0824 34.75 31.3949 34.5937 31.733 34.5057C32.0739 34.4148 32.4091 34.3693 32.7386 34.3693C32.9489 34.3693 33.1903 34.3949 33.4631 34.446C33.7386 34.4943 34.0043 34.5952 34.2599 34.7486C34.5185 34.902 34.733 35.1335 34.9034 35.4432C35.0739 35.7528 35.1591 36.1676 35.1591 36.6875V41H34.1534V40.1136H34.1023C34.0341 40.2557 33.9205 40.4077 33.7614 40.5696C33.6023 40.7315 33.3906 40.8693 33.1264 40.983C32.8622 41.0966 32.5398 41.1534 32.1591 41.1534ZM32.3125 40.25C32.7102 40.25 33.0455 40.1719 33.3182 40.0156C33.5938 39.8594 33.8011 39.6577 33.9403 39.4105C34.0824 39.1634 34.1534 38.9034 34.1534 38.6307V37.7102C34.1108 37.7614 34.017 37.8082 33.8722 37.8509C33.7301 37.8906 33.5653 37.9261 33.3778 37.9574C33.1932 37.9858 33.0128 38.0114 32.8366 38.0341C32.6634 38.054 32.5227 38.071 32.4148 38.0852C32.1534 38.1193 31.9091 38.1747 31.6818 38.2514C31.4574 38.3253 31.2756 38.4375 31.1364 38.5881C31 38.7358 30.9318 38.9375 30.9318 39.1932C30.9318 39.5426 31.0611 39.8068 31.3196 39.9858C31.581 40.1619 31.9119 40.25 32.3125 40.25ZM39.6538 41.1364C39.0401 41.1364 38.5117 40.9915 38.0685 40.7017C37.6254 40.4119 37.2844 40.0128 37.0458 39.5043C36.8072 38.9957 36.6879 38.4148 36.6879 37.7614C36.6879 37.0966 36.81 36.5099 37.0543 36.0014C37.3015 35.4901 37.6452 35.0909 38.0856 34.804C38.5288 34.5142 39.0458 34.3693 39.6367 34.3693C40.0969 34.3693 40.5117 34.4545 40.881 34.625C41.2504 34.7955 41.5529 35.0341 41.7887 35.3409C42.0245 35.6477 42.1708 36.0057 42.2276 36.4148H41.2219C41.1452 36.1165 40.9748 35.8523 40.7106 35.6222C40.4492 35.3892 40.0969 35.2727 39.6538 35.2727C39.2617 35.2727 38.918 35.375 38.6225 35.5795C38.3299 35.7812 38.1012 36.0668 37.9364 36.4361C37.7745 36.8026 37.6935 37.233 37.6935 37.7273C37.6935 38.233 37.7731 38.6733 37.9322 39.0483C38.0941 39.4233 38.3214 39.7145 38.614 39.9219C38.9094 40.1293 39.256 40.233 39.6538 40.233C39.9151 40.233 40.1523 40.1875 40.3654 40.0966C40.5785 40.0057 40.7589 39.875 40.9066 39.7045C41.0543 39.5341 41.1594 39.3295 41.2219 39.0909H42.2276C42.1708 39.4773 42.0302 39.8253 41.8058 40.1349C41.5842 40.4418 41.2901 40.6861 40.9237 40.8679C40.56 41.0469 40.1367 41.1364 39.6538 41.1364ZM44.6353 38.6136L44.6183 37.3693H44.8228L47.6864 34.4545H48.9308L45.8796 37.5398H45.7944L44.6353 38.6136ZM43.6978 41V32.2727H44.7035V41H43.6978ZM47.8569 41L45.3001 37.7614L46.016 37.0625L49.1353 41H47.8569ZM52.6999 41.1364C52.0692 41.1364 51.5252 40.9972 51.0678 40.7188C50.6133 40.4375 50.2624 40.0455 50.0153 39.5426C49.771 39.0369 49.6488 38.4489 49.6488 37.7784C49.6488 37.108 49.771 36.517 50.0153 36.0057C50.2624 35.4915 50.6062 35.0909 51.0465 34.804C51.4897 34.5142 52.0067 34.3693 52.5977 34.3693C52.9386 34.3693 53.2752 34.4261 53.6076 34.5398C53.94 34.6534 54.2425 34.8381 54.5153 35.0938C54.788 35.3466 55.0053 35.6818 55.1673 36.0994C55.3292 36.517 55.4102 37.0312 55.4102 37.642V38.0682H50.3647V37.1989H54.3874C54.3874 36.8295 54.3136 36.5 54.1658 36.2102C54.021 35.9205 53.8136 35.6918 53.5437 35.5241C53.2766 35.3565 52.9613 35.2727 52.5977 35.2727C52.1971 35.2727 51.8505 35.3722 51.5579 35.571C51.2681 35.767 51.0451 36.0227 50.8888 36.3381C50.7326 36.6534 50.6545 36.9915 50.6545 37.3523V37.9318C50.6545 38.4261 50.7397 38.8452 50.9102 39.1889C51.0835 39.5298 51.3235 39.7898 51.6303 39.9688C51.9371 40.1449 52.2937 40.233 52.6999 40.233C52.9641 40.233 53.2028 40.196 53.4158 40.1222C53.6317 40.0455 53.8178 39.9318 53.9741 39.7812C54.1303 39.6278 54.2511 39.4375 54.3363 39.2102L55.3079 39.483C55.2056 39.8125 55.0337 40.1023 54.7923 40.3523C54.5508 40.5994 54.2525 40.7926 53.8974 40.9318C53.5423 41.0682 53.1431 41.1364 52.6999 41.1364ZM57.9457 37.0625V41H56.94V34.4545H57.9116V35.4773H57.9968C58.1502 35.1449 58.3832 34.8778 58.6957 34.6761C59.0082 34.4716 59.4116 34.3693 59.9059 34.3693C60.3491 34.3693 60.7369 34.4602 61.0692 34.642C61.4016 34.821 61.6602 35.0938 61.8448 35.4602C62.0295 35.8239 62.1218 36.2841 62.1218 36.8409V41H61.1161V36.9091C61.1161 36.3949 60.9826 35.9943 60.7156 35.7074C60.4485 35.4176 60.082 35.2727 59.6161 35.2727C59.2951 35.2727 59.0082 35.3423 58.7553 35.4815C58.5053 35.6207 58.3079 35.8239 58.163 36.0909C58.0181 36.358 57.9457 36.6818 57.9457 37.0625ZM66.4311 41.1364C65.8857 41.1364 65.4041 40.9986 64.9865 40.723C64.5689 40.4446 64.2422 40.0526 64.0064 39.5469C63.7706 39.0384 63.6527 38.4375 63.6527 37.7443C63.6527 37.0568 63.7706 36.4602 64.0064 35.9545C64.2422 35.4489 64.5703 35.0582 64.9908 34.7827C65.4112 34.5071 65.897 34.3693 66.4482 34.3693C66.8743 34.3693 67.2109 34.4403 67.4581 34.5824C67.7081 34.7216 67.8984 34.8807 68.0291 35.0597C68.1626 35.2358 68.2663 35.3807 68.3402 35.4943H68.4254V32.2727H69.4311V41H68.4595V39.9943H68.3402C68.2663 40.1136 68.1612 40.2642 68.0249 40.446C67.8885 40.625 67.6939 40.7855 67.4411 40.9276C67.1882 41.0668 66.8516 41.1364 66.4311 41.1364ZM66.5675 40.233C66.9709 40.233 67.3118 40.1278 67.5902 39.9176C67.8686 39.7045 68.0803 39.4105 68.2251 39.0355C68.37 38.6577 68.4425 38.2216 68.4425 37.7273C68.4425 37.2386 68.3714 36.8111 68.2294 36.4446C68.0874 36.0753 67.8771 35.7884 67.5987 35.5838C67.3203 35.3764 66.9766 35.2727 66.5675 35.2727C66.1413 35.2727 65.7862 35.3821 65.5021 35.6009C65.2209 35.8168 65.0092 36.1108 64.8672 36.483C64.728 36.8523 64.6584 37.267 64.6584 37.7273C64.6584 38.1932 64.7294 38.6165 64.8714 38.9972C65.0163 39.375 65.2294 39.6761 65.5107 39.9006C65.7947 40.1222 66.147 40.233 66.5675 40.233ZM22.1545 56V47.2727H27.4215V48.2102H23.2113V51.1591H27.1488V52.0966H23.2113V55.0625H27.4897V56H22.1545ZM30.1957 52.0625V56H29.19V49.4545H30.1616V50.4773H30.2468C30.4002 50.1449 30.6332 49.8778 30.9457 49.6761C31.2582 49.4716 31.6616 49.3693 32.1559 49.3693C32.5991 49.3693 32.9869 49.4602 33.3192 49.642C33.6516 49.821 33.9102 50.0938 34.0948 50.4602C34.2795 50.8239 34.3718 51.2841 34.3718 51.8409V56H33.3661V51.9091C33.3661 51.3949 33.2326 50.9943 32.9656 50.7074C32.6985 50.4176 32.332 50.2727 31.8661 50.2727C31.5451 50.2727 31.2582 50.3423 31.0053 50.4815C30.7553 50.6207 30.5579 50.8239 30.413 51.0909C30.2681 51.358 30.1957 51.6818 30.1957 52.0625ZM38.8516 58.5909C38.3658 58.5909 37.9482 58.5284 37.5987 58.4034C37.2493 58.2812 36.9581 58.1193 36.7251 57.9176C36.495 57.7188 36.3118 57.5057 36.1754 57.2784L36.9766 56.7159C37.0675 56.8352 37.1825 56.9716 37.3217 57.125C37.4609 57.2812 37.6513 57.4162 37.8928 57.5298C38.1371 57.6463 38.4567 57.7045 38.8516 57.7045C39.38 57.7045 39.8161 57.5767 40.1598 57.321C40.5036 57.0653 40.6754 56.6648 40.6754 56.1193V54.7898H40.5902C40.5163 54.9091 40.4112 55.0568 40.2749 55.233C40.1413 55.4062 39.9482 55.5611 39.6953 55.6974C39.4453 55.831 39.1072 55.8977 38.6811 55.8977C38.1527 55.8977 37.6783 55.7727 37.2578 55.5227C36.8402 55.2727 36.5092 54.9091 36.2649 54.4318C36.0234 53.9545 35.9027 53.375 35.9027 52.6932C35.9027 52.0227 36.0206 51.4389 36.2564 50.9418C36.4922 50.4418 36.8203 50.0554 37.2408 49.7827C37.6612 49.5071 38.147 49.3693 38.6982 49.3693C39.1243 49.3693 39.4624 49.4403 39.7124 49.5824C39.9652 49.7216 40.1584 49.8807 40.2919 50.0597C40.4283 50.2358 40.5334 50.3807 40.6072 50.4943H40.7095V49.4545H41.6811V56.1875C41.6811 56.75 41.5533 57.2074 41.2976 57.5597C41.0447 57.9148 40.7038 58.1747 40.2749 58.3395C39.8487 58.5071 39.3743 58.5909 38.8516 58.5909ZM38.8175 54.9943C39.2209 54.9943 39.5618 54.902 39.8402 54.7173C40.1186 54.5327 40.3303 54.267 40.4751 53.9205C40.62 53.5739 40.6925 53.1591 40.6925 52.6761C40.6925 52.2045 40.6214 51.7884 40.4794 51.4276C40.3374 51.0668 40.1271 50.7841 39.8487 50.5795C39.5703 50.375 39.2266 50.2727 38.8175 50.2727C38.3913 50.2727 38.0362 50.3807 37.7521 50.5966C37.4709 50.8125 37.2592 51.1023 37.1172 51.4659C36.978 51.8295 36.9084 52.233 36.9084 52.6761C36.9084 53.1307 36.9794 53.5327 37.1214 53.8821C37.2663 54.2287 37.4794 54.5014 37.7607 54.7003C38.0447 54.8963 38.397 54.9943 38.8175 54.9943ZM43.522 56V49.4545H44.5277V56H43.522ZM44.0334 48.3636C43.8374 48.3636 43.6683 48.2969 43.5263 48.1634C43.3871 48.0298 43.3175 47.8693 43.3175 47.6818C43.3175 47.4943 43.3871 47.3338 43.5263 47.2003C43.6683 47.0668 43.8374 47 44.0334 47C44.2294 47 44.397 47.0668 44.5362 47.2003C44.6783 47.3338 44.7493 47.4943 44.7493 47.6818C44.7493 47.8693 44.6783 48.0298 44.5362 48.1634C44.397 48.2969 44.2294 48.3636 44.0334 48.3636ZM47.3754 52.0625V56H46.3697V49.4545H47.3413V50.4773H47.4265C47.5799 50.1449 47.8129 49.8778 48.1254 49.6761C48.4379 49.4716 48.8413 49.3693 49.3356 49.3693C49.7788 49.3693 50.1665 49.4602 50.4989 49.642C50.8313 49.821 51.0898 50.0938 51.2745 50.4602C51.4592 50.8239 51.5515 51.2841 51.5515 51.8409V56H50.5458V51.9091C50.5458 51.3949 50.4123 50.9943 50.1452 50.7074C49.8782 50.4176 49.5117 50.2727 49.0458 50.2727C48.7248 50.2727 48.4379 50.3423 48.185 50.4815C47.935 50.6207 47.7376 50.8239 47.5927 51.0909C47.4478 51.358 47.3754 51.6818 47.3754 52.0625ZM56.1335 56.1364C55.5028 56.1364 54.9588 55.9972 54.5014 55.7188C54.0469 55.4375 53.696 55.0455 53.4489 54.5426C53.2045 54.0369 53.0824 53.4489 53.0824 52.7784C53.0824 52.108 53.2045 51.517 53.4489 51.0057C53.696 50.4915 54.0398 50.0909 54.4801 49.804C54.9233 49.5142 55.4403 49.3693 56.0312 49.3693C56.3722 49.3693 56.7088 49.4261 57.0412 49.5398C57.3736 49.6534 57.6761 49.8381 57.9489 50.0938C58.2216 50.3466 58.4389 50.6818 58.6009 51.0994C58.7628 51.517 58.8438 52.0312 58.8438 52.642V53.0682H53.7983V52.1989H57.821C57.821 51.8295 57.7472 51.5 57.5994 51.2102C57.4545 50.9205 57.2472 50.6918 56.9773 50.5241C56.7102 50.3565 56.3949 50.2727 56.0312 50.2727C55.6307 50.2727 55.2841 50.3722 54.9915 50.571C54.7017 50.767 54.4787 51.0227 54.3224 51.3381C54.1662 51.6534 54.0881 51.9915 54.0881 52.3523V52.9318C54.0881 53.4261 54.1733 53.8452 54.3438 54.1889C54.517 54.5298 54.7571 54.7898 55.0639 54.9688C55.3707 55.1449 55.7273 55.233 56.1335 55.233C56.3977 55.233 56.6364 55.196 56.8494 55.1222C57.0653 55.0455 57.2514 54.9318 57.4077 54.7812C57.5639 54.6278 57.6847 54.4375 57.7699 54.2102L58.7415 54.483C58.6392 54.8125 58.4673 55.1023 58.2259 55.3523C57.9844 55.5994 57.6861 55.7926 57.331 55.9318C56.9759 56.0682 56.5767 56.1364 56.1335 56.1364ZM63.1179 56.1364C62.4872 56.1364 61.9432 55.9972 61.4858 55.7188C61.0312 55.4375 60.6804 55.0455 60.4332 54.5426C60.1889 54.0369 60.0668 53.4489 60.0668 52.7784C60.0668 52.108 60.1889 51.517 60.4332 51.0057C60.6804 50.4915 61.0241 50.0909 61.4645 49.804C61.9077 49.5142 62.4247 49.3693 63.0156 49.3693C63.3565 49.3693 63.6932 49.4261 64.0256 49.5398C64.358 49.6534 64.6605 49.8381 64.9332 50.0938C65.206 50.3466 65.4233 50.6818 65.5852 51.0994C65.7472 51.517 65.8281 52.0312 65.8281 52.642V53.0682H60.7827V52.1989H64.8054C64.8054 51.8295 64.7315 51.5 64.5838 51.2102C64.4389 50.9205 64.2315 50.6918 63.9616 50.5241C63.6946 50.3565 63.3793 50.2727 63.0156 50.2727C62.6151 50.2727 62.2685 50.3722 61.9759 50.571C61.6861 50.767 61.4631 51.0227 61.3068 51.3381C61.1506 51.6534 61.0724 51.9915 61.0724 52.3523V52.9318C61.0724 53.4261 61.1577 53.8452 61.3281 54.1889C61.5014 54.5298 61.7415 54.7898 62.0483 54.9688C62.3551 55.1449 62.7116 55.233 63.1179 55.233C63.3821 55.233 63.6207 55.196 63.8338 55.1222C64.0497 55.0455 64.2358 54.9318 64.392 54.7812C64.5483 54.6278 64.669 54.4375 64.7543 54.2102L65.7259 54.483C65.6236 54.8125 65.4517 55.1023 65.2102 55.3523C64.9688 55.5994 64.6705 55.7926 64.3153 55.9318C63.9602 56.0682 63.5611 56.1364 63.1179 56.1364ZM67.358 56V49.4545H68.3295V50.4432H68.3977C68.517 50.1193 68.733 49.8565 69.0455 49.6548C69.358 49.4531 69.7102 49.3523 70.1023 49.3523C70.1761 49.3523 70.2685 49.3537 70.3793 49.3565C70.4901 49.3594 70.5739 49.3636 70.6307 49.3693V50.392C70.5966 50.3835 70.5185 50.3707 70.3963 50.3537C70.277 50.3338 70.1506 50.3239 70.017 50.3239C69.6989 50.3239 69.4148 50.3906 69.1648 50.5241C68.9176 50.6548 68.7216 50.8366 68.5767 51.0696C68.4347 51.2997 68.3636 51.5625 68.3636 51.858V56H67.358Z" fill="black"/>
<circle cx="46.5" cy="142.5" r="45.5" fill="white" stroke="black" stroke-width="2"/>
<circle cx="46.5" cy="238.5" r="45.5" fill="white" stroke="black" stroke-width="2"/>
<circle cx="144.5" cy="238.5" r="45.5" fill="white" stroke="black" stroke-width="2"/>
<circle cx="144.5" cy="142.5" r="45.5" fill="white" stroke="black" stroke-width="2"/>
<circle cx="144.5" cy="46.5" r="45.5" fill="white" stroke="black" stroke-width="2"/>
<circle cx="430.5" cy="142.5" r="45.5" fill="white" stroke="black" stroke-width="2"/>
<circle cx="528.5" cy="142.5" r="45.5" fill="white" stroke="black" stroke-width="2"/>
<path d="M119.475 41V32.2727H124.708V33.2102H120.532V36.1591H124.316V37.0966H120.532V41H119.475ZM126.311 41V34.4545H127.283V35.4432H127.351C127.47 35.1193 127.686 34.8565 127.999 34.6548C128.311 34.4531 128.663 34.3523 129.055 34.3523C129.129 34.3523 129.222 34.3537 129.332 34.3565C129.443 34.3594 129.527 34.3636 129.584 34.3693V35.392C129.55 35.3835 129.472 35.3707 129.349 35.3537C129.23 35.3338 129.104 35.3239 128.97 35.3239C128.652 35.3239 128.368 35.3906 128.118 35.5241C127.871 35.6548 127.675 35.8366 127.53 36.0696C127.388 36.2997 127.317 36.5625 127.317 36.858V41H126.311ZM133.236 41.1364C132.645 41.1364 132.126 40.9957 131.68 40.7145C131.237 40.4332 130.891 40.0398 130.641 39.5341C130.393 39.0284 130.27 38.4375 130.27 37.7614C130.27 37.0795 130.393 36.4844 130.641 35.9759C130.891 35.4673 131.237 35.0724 131.68 34.7912C132.126 34.5099 132.645 34.3693 133.236 34.3693C133.827 34.3693 134.344 34.5099 134.787 34.7912C135.233 35.0724 135.58 35.4673 135.827 35.9759C136.077 36.4844 136.202 37.0795 136.202 37.7614C136.202 38.4375 136.077 39.0284 135.827 39.5341C135.58 40.0398 135.233 40.4332 134.787 40.7145C134.344 40.9957 133.827 41.1364 133.236 41.1364ZM133.236 40.233C133.685 40.233 134.054 40.1179 134.344 39.8878C134.634 39.6577 134.848 39.3551 134.987 38.9801C135.126 38.6051 135.196 38.1989 135.196 37.7614C135.196 37.3239 135.126 36.9162 134.987 36.5384C134.848 36.1605 134.634 35.8551 134.344 35.6222C134.054 35.3892 133.685 35.2727 133.236 35.2727C132.787 35.2727 132.418 35.3892 132.128 35.6222C131.838 35.8551 131.624 36.1605 131.484 36.5384C131.345 36.9162 131.276 37.3239 131.276 37.7614C131.276 38.1989 131.345 38.6051 131.484 38.9801C131.624 39.3551 131.838 39.6577 132.128 39.8878C132.418 40.1179 132.787 40.233 133.236 40.233ZM138.743 37.0625V41H137.737V34.4545H138.708V35.4773H138.794C138.947 35.1449 139.18 34.8778 139.493 34.6761C139.805 34.4716 140.208 34.3693 140.703 34.3693C141.146 34.3693 141.534 34.4602 141.866 34.642C142.199 34.821 142.457 35.0938 142.642 35.4602C142.826 35.8239 142.919 36.2841 142.919 36.8409V41H141.913V36.9091C141.913 36.3949 141.779 35.9943 141.512 35.7074C141.245 35.4176 140.879 35.2727 140.413 35.2727C140.092 35.2727 139.805 35.3423 139.552 35.4815C139.302 35.6207 139.105 35.8239 138.96 36.0909C138.815 36.358 138.743 36.6818 138.743 37.0625ZM147.603 34.4545V35.3068H144.211V34.4545H147.603ZM145.2 32.8864H146.205V39.125C146.205 39.4091 146.246 39.6222 146.329 39.7642C146.414 39.9034 146.522 39.9972 146.653 40.0455C146.786 40.0909 146.927 40.1136 147.075 40.1136C147.185 40.1136 147.276 40.108 147.347 40.0966C147.418 40.0824 147.475 40.071 147.518 40.0625L147.722 40.9659C147.654 40.9915 147.559 41.017 147.437 41.0426C147.315 41.071 147.16 41.0852 146.972 41.0852C146.688 41.0852 146.41 41.0241 146.137 40.902C145.867 40.7798 145.643 40.5938 145.464 40.3438C145.288 40.0938 145.2 39.7784 145.2 39.3977V32.8864ZM151.79 41.1364C151.159 41.1364 150.615 40.9972 150.158 40.7188C149.703 40.4375 149.352 40.0455 149.105 39.5426C148.861 39.0369 148.739 38.4489 148.739 37.7784C148.739 37.108 148.861 36.517 149.105 36.0057C149.352 35.4915 149.696 35.0909 150.136 34.804C150.58 34.5142 151.097 34.3693 151.688 34.3693C152.028 34.3693 152.365 34.4261 152.697 34.5398C153.03 34.6534 153.332 34.8381 153.605 35.0938C153.878 35.3466 154.095 35.6818 154.257 36.0994C154.419 36.517 154.5 37.0312 154.5 37.642V38.0682H149.455V37.1989H153.477C153.477 36.8295 153.403 36.5 153.256 36.2102C153.111 35.9205 152.903 35.6918 152.634 35.5241C152.366 35.3565 152.051 35.2727 151.688 35.2727C151.287 35.2727 150.94 35.3722 150.648 35.571C150.358 35.767 150.135 36.0227 149.979 36.3381C149.822 36.6534 149.744 36.9915 149.744 37.3523V37.9318C149.744 38.4261 149.83 38.8452 150 39.1889C150.173 39.5298 150.413 39.7898 150.72 39.9688C151.027 40.1449 151.384 40.233 151.79 40.233C152.054 40.233 152.293 40.196 152.506 40.1222C152.722 40.0455 152.908 39.9318 153.064 39.7812C153.22 39.6278 153.341 39.4375 153.426 39.2102L154.398 39.483C154.295 39.8125 154.124 40.1023 153.882 40.3523C153.641 40.5994 153.342 40.7926 152.987 40.9318C152.632 41.0682 152.233 41.1364 151.79 41.1364ZM157.036 37.0625V41H156.03V34.4545H157.001V35.4773H157.087C157.24 35.1449 157.473 34.8778 157.786 34.6761C158.098 34.4716 158.501 34.3693 158.996 34.3693C159.439 34.3693 159.827 34.4602 160.159 34.642C160.491 34.821 160.75 35.0938 160.935 35.4602C161.119 35.8239 161.212 36.2841 161.212 36.8409V41H160.206V36.9091C160.206 36.3949 160.072 35.9943 159.805 35.7074C159.538 35.4176 159.172 35.2727 158.706 35.2727C158.385 35.2727 158.098 35.3423 157.845 35.4815C157.595 35.6207 157.398 35.8239 157.253 36.0909C157.108 36.358 157.036 36.6818 157.036 37.0625ZM165.521 41.1364C164.975 41.1364 164.494 40.9986 164.076 40.723C163.659 40.4446 163.332 40.0526 163.096 39.5469C162.86 39.0384 162.743 38.4375 162.743 37.7443C162.743 37.0568 162.86 36.4602 163.096 35.9545C163.332 35.4489 163.66 35.0582 164.081 34.7827C164.501 34.5071 164.987 34.3693 165.538 34.3693C165.964 34.3693 166.301 34.4403 166.548 34.5824C166.798 34.7216 166.988 34.8807 167.119 35.0597C167.252 35.2358 167.356 35.3807 167.43 35.4943H167.515V32.2727H168.521V41H167.549V39.9943H167.43C167.356 40.1136 167.251 40.2642 167.115 40.446C166.978 40.625 166.784 40.7855 166.531 40.9276C166.278 41.0668 165.941 41.1364 165.521 41.1364ZM165.657 40.233C166.061 40.233 166.402 40.1278 166.68 39.9176C166.958 39.7045 167.17 39.4105 167.315 39.0355C167.46 38.6577 167.532 38.2216 167.532 37.7273C167.532 37.2386 167.461 36.8111 167.319 36.4446C167.177 36.0753 166.967 35.7884 166.689 35.5838C166.41 35.3764 166.066 35.2727 165.657 35.2727C165.231 35.2727 164.876 35.3821 164.592 35.6009C164.311 35.8168 164.099 36.1108 163.957 36.483C163.818 36.8523 163.748 37.267 163.748 37.7273C163.748 38.1932 163.819 38.6165 163.961 38.9972C164.106 39.375 164.319 39.6761 164.6 39.9006C164.885 40.1222 165.237 40.233 165.657 40.233ZM120.154 56V47.2727H125.422V48.2102H121.211V51.1591H125.149V52.0966H121.211V55.0625H125.49V56H120.154ZM128.196 52.0625V56H127.19V49.4545H128.162V50.4773H128.247C128.4 50.1449 128.633 49.8778 128.946 49.6761C129.258 49.4716 129.662 49.3693 130.156 49.3693C130.599 49.3693 130.987 49.4602 131.319 49.642C131.652 49.821 131.91 50.0938 132.095 50.4602C132.279 50.8239 132.372 51.2841 132.372 51.8409V56H131.366V51.9091C131.366 51.3949 131.233 50.9943 130.966 50.7074C130.699 50.4176 130.332 50.2727 129.866 50.2727C129.545 50.2727 129.258 50.3423 129.005 50.4815C128.755 50.6207 128.558 50.8239 128.413 51.0909C128.268 51.358 128.196 51.6818 128.196 52.0625ZM136.852 58.5909C136.366 58.5909 135.948 58.5284 135.599 58.4034C135.249 58.2812 134.958 58.1193 134.725 57.9176C134.495 57.7188 134.312 57.5057 134.175 57.2784L134.977 56.7159C135.067 56.8352 135.183 56.9716 135.322 57.125C135.461 57.2812 135.651 57.4162 135.893 57.5298C136.137 57.6463 136.457 57.7045 136.852 57.7045C137.38 57.7045 137.816 57.5767 138.16 57.321C138.504 57.0653 138.675 56.6648 138.675 56.1193V54.7898H138.59C138.516 54.9091 138.411 55.0568 138.275 55.233C138.141 55.4062 137.948 55.5611 137.695 55.6974C137.445 55.831 137.107 55.8977 136.681 55.8977C136.153 55.8977 135.678 55.7727 135.258 55.5227C134.84 55.2727 134.509 54.9091 134.265 54.4318C134.023 53.9545 133.903 53.375 133.903 52.6932C133.903 52.0227 134.021 51.4389 134.256 50.9418C134.492 50.4418 134.82 50.0554 135.241 49.7827C135.661 49.5071 136.147 49.3693 136.698 49.3693C137.124 49.3693 137.462 49.4403 137.712 49.5824C137.965 49.7216 138.158 49.8807 138.292 50.0597C138.428 50.2358 138.533 50.3807 138.607 50.4943H138.71V49.4545H139.681V56.1875C139.681 56.75 139.553 57.2074 139.298 57.5597C139.045 57.9148 138.704 58.1747 138.275 58.3395C137.849 58.5071 137.374 58.5909 136.852 58.5909ZM136.817 54.9943C137.221 54.9943 137.562 54.902 137.84 54.7173C138.119 54.5327 138.33 54.267 138.475 53.9205C138.62 53.5739 138.692 53.1591 138.692 52.6761C138.692 52.2045 138.621 51.7884 138.479 51.4276C138.337 51.0668 138.127 50.7841 137.849 50.5795C137.57 50.375 137.227 50.2727 136.817 50.2727C136.391 50.2727 136.036 50.3807 135.752 50.5966C135.471 50.8125 135.259 51.1023 135.117 51.4659C134.978 51.8295 134.908 52.233 134.908 52.6761C134.908 53.1307 134.979 53.5327 135.121 53.8821C135.266 54.2287 135.479 54.5014 135.761 54.7003C136.045 54.8963 136.397 54.9943 136.817 54.9943ZM141.522 56V49.4545H142.528V56H141.522ZM142.033 48.3636C141.837 48.3636 141.668 48.2969 141.526 48.1634C141.387 48.0298 141.317 47.8693 141.317 47.6818C141.317 47.4943 141.387 47.3338 141.526 47.2003C141.668 47.0668 141.837 47 142.033 47C142.229 47 142.397 47.0668 142.536 47.2003C142.678 47.3338 142.749 47.4943 142.749 47.6818C142.749 47.8693 142.678 48.0298 142.536 48.1634C142.397 48.2969 142.229 48.3636 142.033 48.3636ZM145.375 52.0625V56H144.37V49.4545H145.341V50.4773H145.426C145.58 50.1449 145.813 49.8778 146.125 49.6761C146.438 49.4716 146.841 49.3693 147.336 49.3693C147.779 49.3693 148.167 49.4602 148.499 49.642C148.831 49.821 149.09 50.0938 149.275 50.4602C149.459 50.8239 149.551 51.2841 149.551 51.8409V56H148.546V51.9091C148.546 51.3949 148.412 50.9943 148.145 50.7074C147.878 50.4176 147.512 50.2727 147.046 50.2727C146.725 50.2727 146.438 50.3423 146.185 50.4815C145.935 50.6207 145.738 50.8239 145.593 51.0909C145.448 51.358 145.375 51.6818 145.375 52.0625ZM154.134 56.1364C153.503 56.1364 152.959 55.9972 152.501 55.7188C152.047 55.4375 151.696 55.0455 151.449 54.5426C151.205 54.0369 151.082 53.4489 151.082 52.7784C151.082 52.108 151.205 51.517 151.449 51.0057C151.696 50.4915 152.04 50.0909 152.48 49.804C152.923 49.5142 153.44 49.3693 154.031 49.3693C154.372 49.3693 154.709 49.4261 155.041 49.5398C155.374 49.6534 155.676 49.8381 155.949 50.0938C156.222 50.3466 156.439 50.6818 156.601 51.0994C156.763 51.517 156.844 52.0312 156.844 52.642V53.0682H151.798V52.1989H155.821C155.821 51.8295 155.747 51.5 155.599 51.2102C155.455 50.9205 155.247 50.6918 154.977 50.5241C154.71 50.3565 154.395 50.2727 154.031 50.2727C153.631 50.2727 153.284 50.3722 152.991 50.571C152.702 50.767 152.479 51.0227 152.322 51.3381C152.166 51.6534 152.088 51.9915 152.088 52.3523V52.9318C152.088 53.4261 152.173 53.8452 152.344 54.1889C152.517 54.5298 152.757 54.7898 153.064 54.9688C153.371 55.1449 153.727 55.233 154.134 55.233C154.398 55.233 154.636 55.196 154.849 55.1222C155.065 55.0455 155.251 54.9318 155.408 54.7812C155.564 54.6278 155.685 54.4375 155.77 54.2102L156.741 54.483C156.639 54.8125 156.467 55.1023 156.226 55.3523C155.984 55.5994 155.686 55.7926 155.331 55.9318C154.976 56.0682 154.577 56.1364 154.134 56.1364ZM161.118 56.1364C160.487 56.1364 159.943 55.9972 159.486 55.7188C159.031 55.4375 158.68 55.0455 158.433 54.5426C158.189 54.0369 158.067 53.4489 158.067 52.7784C158.067 52.108 158.189 51.517 158.433 51.0057C158.68 50.4915 159.024 50.0909 159.464 49.804C159.908 49.5142 160.425 49.3693 161.016 49.3693C161.357 49.3693 161.693 49.4261 162.026 49.5398C162.358 49.6534 162.661 49.8381 162.933 50.0938C163.206 50.3466 163.423 50.6818 163.585 51.0994C163.747 51.517 163.828 52.0312 163.828 52.642V53.0682H158.783V52.1989H162.805C162.805 51.8295 162.732 51.5 162.584 51.2102C162.439 50.9205 162.232 50.6918 161.962 50.5241C161.695 50.3565 161.379 50.2727 161.016 50.2727C160.615 50.2727 160.268 50.3722 159.976 50.571C159.686 50.767 159.463 51.0227 159.307 51.3381C159.151 51.6534 159.072 51.9915 159.072 52.3523V52.9318C159.072 53.4261 159.158 53.8452 159.328 54.1889C159.501 54.5298 159.741 54.7898 160.048 54.9688C160.355 55.1449 160.712 55.233 161.118 55.233C161.382 55.233 161.621 55.196 161.834 55.1222C162.05 55.0455 162.236 54.9318 162.392 54.7812C162.548 54.6278 162.669 54.4375 162.754 54.2102L163.726 54.483C163.624 54.8125 163.452 55.1023 163.21 55.3523C162.969 55.5994 162.67 55.7926 162.315 55.9318C161.96 56.0682 161.561 56.1364 161.118 56.1364ZM165.358 56V49.4545H166.33V50.4432H166.398C166.517 50.1193 166.733 49.8565 167.045 49.6548C167.358 49.4531 167.71 49.3523 168.102 49.3523C168.176 49.3523 168.268 49.3537 168.379 49.3565C168.49 49.3594 168.574 49.3636 168.631 49.3693V50.392C168.597 50.3835 168.518 50.3707 168.396 50.3537C168.277 50.3338 168.151 50.3239 168.017 50.3239C167.699 50.3239 167.415 50.3906 167.165 50.5241C166.918 50.6548 166.722 50.8366 166.577 51.0696C166.435 51.2997 166.364 51.5625 166.364 51.858V56H165.358Z" fill="black"/>
<path d="M409.791 142V133.273H412.74C413.425 133.273 413.984 133.396 414.419 133.643C414.857 133.888 415.18 134.219 415.391 134.636C415.601 135.054 415.706 135.52 415.706 136.034C415.706 136.548 415.601 137.016 415.391 137.436C415.183 137.857 414.862 138.192 414.428 138.442C413.993 138.689 413.436 138.812 412.757 138.812H410.643V137.875H412.723C413.192 137.875 413.568 137.794 413.852 137.632C414.136 137.47 414.342 137.251 414.47 136.976C414.601 136.697 414.666 136.384 414.666 136.034C414.666 135.685 414.601 135.372 414.47 135.097C414.342 134.821 414.135 134.605 413.848 134.449C413.561 134.29 413.18 134.21 412.706 134.21H410.848V142H409.791ZM417.272 142V135.455H418.244V136.443H418.312C418.431 136.119 418.647 135.857 418.96 135.655C419.272 135.453 419.624 135.352 420.016 135.352C420.09 135.352 420.183 135.354 420.293 135.357C420.404 135.359 420.488 135.364 420.545 135.369V136.392C420.511 136.384 420.433 136.371 420.31 136.354C420.191 136.334 420.065 136.324 419.931 136.324C419.613 136.324 419.329 136.391 419.079 136.524C418.832 136.655 418.636 136.837 418.491 137.07C418.349 137.3 418.278 137.562 418.278 137.858V142H417.272ZM424.197 142.136C423.606 142.136 423.087 141.996 422.641 141.714C422.198 141.433 421.852 141.04 421.602 140.534C421.354 140.028 421.231 139.437 421.231 138.761C421.231 138.08 421.354 137.484 421.602 136.976C421.852 136.467 422.198 136.072 422.641 135.791C423.087 135.51 423.606 135.369 424.197 135.369C424.788 135.369 425.305 135.51 425.748 135.791C426.194 136.072 426.54 136.467 426.788 136.976C427.038 137.484 427.163 138.08 427.163 138.761C427.163 139.437 427.038 140.028 426.788 140.534C426.54 141.04 426.194 141.433 425.748 141.714C425.305 141.996 424.788 142.136 424.197 142.136ZM424.197 141.233C424.646 141.233 425.015 141.118 425.305 140.888C425.594 140.658 425.809 140.355 425.948 139.98C426.087 139.605 426.157 139.199 426.157 138.761C426.157 138.324 426.087 137.916 425.948 137.538C425.809 137.161 425.594 136.855 425.305 136.622C425.015 136.389 424.646 136.273 424.197 136.273C423.748 136.273 423.379 136.389 423.089 136.622C422.799 136.855 422.585 137.161 422.445 137.538C422.306 137.916 422.237 138.324 422.237 138.761C422.237 139.199 422.306 139.605 422.445 139.98C422.585 140.355 422.799 140.658 423.089 140.888C423.379 141.118 423.748 141.233 424.197 141.233ZM431.169 142.136C430.624 142.136 430.142 141.999 429.725 141.723C429.307 141.445 428.98 141.053 428.745 140.547C428.509 140.038 428.391 139.438 428.391 138.744C428.391 138.057 428.509 137.46 428.745 136.955C428.98 136.449 429.309 136.058 429.729 135.783C430.15 135.507 430.635 135.369 431.186 135.369C431.613 135.369 431.949 135.44 432.196 135.582C432.446 135.722 432.637 135.881 432.767 136.06C432.901 136.236 433.005 136.381 433.078 136.494H433.164V133.273H434.169V142H433.198V140.994H433.078C433.005 141.114 432.9 141.264 432.763 141.446C432.627 141.625 432.432 141.786 432.179 141.928C431.926 142.067 431.59 142.136 431.169 142.136ZM431.306 141.233C431.709 141.233 432.05 141.128 432.328 140.918C432.607 140.705 432.819 140.411 432.963 140.036C433.108 139.658 433.181 139.222 433.181 138.727C433.181 138.239 433.11 137.811 432.968 137.445C432.826 137.075 432.615 136.788 432.337 136.584C432.059 136.376 431.715 136.273 431.306 136.273C430.88 136.273 430.525 136.382 430.24 136.601C429.959 136.817 429.748 137.111 429.605 137.483C429.466 137.852 429.397 138.267 429.397 138.727C429.397 139.193 429.468 139.616 429.61 139.997C429.755 140.375 429.968 140.676 430.249 140.901C430.533 141.122 430.885 141.233 431.306 141.233ZM440.276 139.324V135.455H441.282V142H440.276V140.892H440.208C440.054 141.224 439.816 141.507 439.492 141.74C439.168 141.97 438.759 142.085 438.265 142.085C437.855 142.085 437.492 141.996 437.174 141.817C436.855 141.635 436.605 141.362 436.424 140.999C436.242 140.632 436.151 140.17 436.151 139.614V135.455H437.157V139.545C437.157 140.023 437.29 140.403 437.557 140.688C437.827 140.972 438.171 141.114 438.588 141.114C438.838 141.114 439.093 141.05 439.351 140.922C439.613 140.794 439.831 140.598 440.007 140.334C440.186 140.07 440.276 139.733 440.276 139.324ZM445.783 142.136C445.169 142.136 444.641 141.991 444.197 141.702C443.754 141.412 443.413 141.013 443.175 140.504C442.936 139.996 442.817 139.415 442.817 138.761C442.817 138.097 442.939 137.51 443.183 137.001C443.43 136.49 443.774 136.091 444.214 135.804C444.658 135.514 445.175 135.369 445.766 135.369C446.226 135.369 446.641 135.455 447.01 135.625C447.379 135.795 447.682 136.034 447.918 136.341C448.153 136.648 448.3 137.006 448.357 137.415H447.351C447.274 137.116 447.104 136.852 446.839 136.622C446.578 136.389 446.226 136.273 445.783 136.273C445.391 136.273 445.047 136.375 444.751 136.58C444.459 136.781 444.23 137.067 444.065 137.436C443.903 137.803 443.822 138.233 443.822 138.727C443.822 139.233 443.902 139.673 444.061 140.048C444.223 140.423 444.45 140.714 444.743 140.922C445.038 141.129 445.385 141.233 445.783 141.233C446.044 141.233 446.281 141.188 446.494 141.097C446.707 141.006 446.888 140.875 447.036 140.705C447.183 140.534 447.288 140.33 447.351 140.091H448.357C448.3 140.477 448.159 140.825 447.935 141.135C447.713 141.442 447.419 141.686 447.053 141.868C446.689 142.047 446.266 142.136 445.783 142.136ZM452.673 135.455V136.307H449.281V135.455H452.673ZM450.27 133.886H451.276V140.125C451.276 140.409 451.317 140.622 451.399 140.764C451.484 140.903 451.592 140.997 451.723 141.045C451.857 141.091 451.997 141.114 452.145 141.114C452.256 141.114 452.347 141.108 452.418 141.097C452.489 141.082 452.545 141.071 452.588 141.062L452.793 141.966C452.724 141.991 452.629 142.017 452.507 142.043C452.385 142.071 452.23 142.085 452.043 142.085C451.759 142.085 451.48 142.024 451.207 141.902C450.938 141.78 450.713 141.594 450.534 141.344C450.358 141.094 450.27 140.778 450.27 140.398V133.886ZM407.154 157V148.273H412.422V149.21H408.211V152.159H412.149V153.097H408.211V156.062H412.49V157H407.154ZM415.196 153.062V157H414.19V150.455H415.162V151.477H415.247C415.4 151.145 415.633 150.878 415.946 150.676C416.258 150.472 416.662 150.369 417.156 150.369C417.599 150.369 417.987 150.46 418.319 150.642C418.652 150.821 418.91 151.094 419.095 151.46C419.279 151.824 419.372 152.284 419.372 152.841V157H418.366V152.909C418.366 152.395 418.233 151.994 417.966 151.707C417.699 151.418 417.332 151.273 416.866 151.273C416.545 151.273 416.258 151.342 416.005 151.482C415.755 151.621 415.558 151.824 415.413 152.091C415.268 152.358 415.196 152.682 415.196 153.062ZM423.852 159.591C423.366 159.591 422.948 159.528 422.599 159.403C422.249 159.281 421.958 159.119 421.725 158.918C421.495 158.719 421.312 158.506 421.175 158.278L421.977 157.716C422.067 157.835 422.183 157.972 422.322 158.125C422.461 158.281 422.651 158.416 422.893 158.53C423.137 158.646 423.457 158.705 423.852 158.705C424.38 158.705 424.816 158.577 425.16 158.321C425.504 158.065 425.675 157.665 425.675 157.119V155.79H425.59C425.516 155.909 425.411 156.057 425.275 156.233C425.141 156.406 424.948 156.561 424.695 156.697C424.445 156.831 424.107 156.898 423.681 156.898C423.153 156.898 422.678 156.773 422.258 156.523C421.84 156.273 421.509 155.909 421.265 155.432C421.023 154.955 420.903 154.375 420.903 153.693C420.903 153.023 421.021 152.439 421.256 151.942C421.492 151.442 421.82 151.055 422.241 150.783C422.661 150.507 423.147 150.369 423.698 150.369C424.124 150.369 424.462 150.44 424.712 150.582C424.965 150.722 425.158 150.881 425.292 151.06C425.428 151.236 425.533 151.381 425.607 151.494H425.71V150.455H426.681V157.188C426.681 157.75 426.553 158.207 426.298 158.56C426.045 158.915 425.704 159.175 425.275 159.339C424.849 159.507 424.374 159.591 423.852 159.591ZM423.817 155.994C424.221 155.994 424.562 155.902 424.84 155.717C425.119 155.533 425.33 155.267 425.475 154.92C425.62 154.574 425.692 154.159 425.692 153.676C425.692 153.205 425.621 152.788 425.479 152.428C425.337 152.067 425.127 151.784 424.849 151.58C424.57 151.375 424.227 151.273 423.817 151.273C423.391 151.273 423.036 151.381 422.752 151.597C422.471 151.812 422.259 152.102 422.117 152.466C421.978 152.83 421.908 153.233 421.908 153.676C421.908 154.131 421.979 154.533 422.121 154.882C422.266 155.229 422.479 155.501 422.761 155.7C423.045 155.896 423.397 155.994 423.817 155.994ZM428.522 157V150.455H429.528V157H428.522ZM429.033 149.364C428.837 149.364 428.668 149.297 428.526 149.163C428.387 149.03 428.317 148.869 428.317 148.682C428.317 148.494 428.387 148.334 428.526 148.2C428.668 148.067 428.837 148 429.033 148C429.229 148 429.397 148.067 429.536 148.2C429.678 148.334 429.749 148.494 429.749 148.682C429.749 148.869 429.678 149.03 429.536 149.163C429.397 149.297 429.229 149.364 429.033 149.364ZM432.375 153.062V157H431.37V150.455H432.341V151.477H432.426C432.58 151.145 432.813 150.878 433.125 150.676C433.438 150.472 433.841 150.369 434.336 150.369C434.779 150.369 435.167 150.46 435.499 150.642C435.831 150.821 436.09 151.094 436.275 151.46C436.459 151.824 436.551 152.284 436.551 152.841V157H435.546V152.909C435.546 152.395 435.412 151.994 435.145 151.707C434.878 151.418 434.512 151.273 434.046 151.273C433.725 151.273 433.438 151.342 433.185 151.482C432.935 151.621 432.738 151.824 432.593 152.091C432.448 152.358 432.375 152.682 432.375 153.062ZM441.134 157.136C440.503 157.136 439.959 156.997 439.501 156.719C439.047 156.438 438.696 156.045 438.449 155.543C438.205 155.037 438.082 154.449 438.082 153.778C438.082 153.108 438.205 152.517 438.449 152.006C438.696 151.491 439.04 151.091 439.48 150.804C439.923 150.514 440.44 150.369 441.031 150.369C441.372 150.369 441.709 150.426 442.041 150.54C442.374 150.653 442.676 150.838 442.949 151.094C443.222 151.347 443.439 151.682 443.601 152.099C443.763 152.517 443.844 153.031 443.844 153.642V154.068H438.798V153.199H442.821C442.821 152.83 442.747 152.5 442.599 152.21C442.455 151.92 442.247 151.692 441.977 151.524C441.71 151.357 441.395 151.273 441.031 151.273C440.631 151.273 440.284 151.372 439.991 151.571C439.702 151.767 439.479 152.023 439.322 152.338C439.166 152.653 439.088 152.991 439.088 153.352V153.932C439.088 154.426 439.173 154.845 439.344 155.189C439.517 155.53 439.757 155.79 440.064 155.969C440.371 156.145 440.727 156.233 441.134 156.233C441.398 156.233 441.636 156.196 441.849 156.122C442.065 156.045 442.251 155.932 442.408 155.781C442.564 155.628 442.685 155.437 442.77 155.21L443.741 155.483C443.639 155.812 443.467 156.102 443.226 156.352C442.984 156.599 442.686 156.793 442.331 156.932C441.976 157.068 441.577 157.136 441.134 157.136ZM448.118 157.136C447.487 157.136 446.943 156.997 446.486 156.719C446.031 156.438 445.68 156.045 445.433 155.543C445.189 155.037 445.067 154.449 445.067 153.778C445.067 153.108 445.189 152.517 445.433 152.006C445.68 151.491 446.024 151.091 446.464 150.804C446.908 150.514 447.425 150.369 448.016 150.369C448.357 150.369 448.693 150.426 449.026 150.54C449.358 150.653 449.661 150.838 449.933 151.094C450.206 151.347 450.423 151.682 450.585 152.099C450.747 152.517 450.828 153.031 450.828 153.642V154.068H445.783V153.199H449.805C449.805 152.83 449.732 152.5 449.584 152.21C449.439 151.92 449.232 151.692 448.962 151.524C448.695 151.357 448.379 151.273 448.016 151.273C447.615 151.273 447.268 151.372 446.976 151.571C446.686 151.767 446.463 152.023 446.307 152.338C446.151 152.653 446.072 152.991 446.072 153.352V153.932C446.072 154.426 446.158 154.845 446.328 155.189C446.501 155.53 446.741 155.79 447.048 155.969C447.355 156.145 447.712 156.233 448.118 156.233C448.382 156.233 448.621 156.196 448.834 156.122C449.05 156.045 449.236 155.932 449.392 155.781C449.548 155.628 449.669 155.437 449.754 155.21L450.726 155.483C450.624 155.812 450.452 156.102 450.21 156.352C449.969 156.599 449.67 156.793 449.315 156.932C448.96 157.068 448.561 157.136 448.118 157.136ZM452.358 157V150.455H453.33V151.443H453.398C453.517 151.119 453.733 150.857 454.045 150.655C454.358 150.453 454.71 150.352 455.102 150.352C455.176 150.352 455.268 150.354 455.379 150.357C455.49 150.359 455.574 150.364 455.631 150.369V151.392C455.597 151.384 455.518 151.371 455.396 151.354C455.277 151.334 455.151 151.324 455.017 151.324C454.699 151.324 454.415 151.391 454.165 151.524C453.918 151.655 453.722 151.837 453.577 152.07C453.435 152.3 453.364 152.562 453.364 152.858V157H452.358Z" fill="black"/>
<path d="M507.791 142V133.273H510.74C511.425 133.273 511.984 133.396 512.419 133.643C512.857 133.888 513.18 134.219 513.391 134.636C513.601 135.054 513.706 135.52 513.706 136.034C513.706 136.548 513.601 137.016 513.391 137.436C513.183 137.857 512.862 138.192 512.428 138.442C511.993 138.689 511.436 138.812 510.757 138.812H508.643V137.875H510.723C511.192 137.875 511.568 137.794 511.852 137.632C512.136 137.47 512.342 137.251 512.47 136.976C512.601 136.697 512.666 136.384 512.666 136.034C512.666 135.685 512.601 135.372 512.47 135.097C512.342 134.821 512.135 134.605 511.848 134.449C511.561 134.29 511.18 134.21 510.706 134.21H508.848V142H507.791ZM515.272 142V135.455H516.244V136.443H516.312C516.431 136.119 516.647 135.857 516.96 135.655C517.272 135.453 517.624 135.352 518.016 135.352C518.09 135.352 518.183 135.354 518.293 135.357C518.404 135.359 518.488 135.364 518.545 135.369V136.392C518.511 136.384 518.433 136.371 518.31 136.354C518.191 136.334 518.065 136.324 517.931 136.324C517.613 136.324 517.329 136.391 517.079 136.524C516.832 136.655 516.636 136.837 516.491 137.07C516.349 137.3 516.278 137.562 516.278 137.858V142H515.272ZM522.197 142.136C521.606 142.136 521.087 141.996 520.641 141.714C520.198 141.433 519.852 141.04 519.602 140.534C519.354 140.028 519.231 139.437 519.231 138.761C519.231 138.08 519.354 137.484 519.602 136.976C519.852 136.467 520.198 136.072 520.641 135.791C521.087 135.51 521.606 135.369 522.197 135.369C522.788 135.369 523.305 135.51 523.748 135.791C524.194 136.072 524.54 136.467 524.788 136.976C525.038 137.484 525.163 138.08 525.163 138.761C525.163 139.437 525.038 140.028 524.788 140.534C524.54 141.04 524.194 141.433 523.748 141.714C523.305 141.996 522.788 142.136 522.197 142.136ZM522.197 141.233C522.646 141.233 523.015 141.118 523.305 140.888C523.594 140.658 523.809 140.355 523.948 139.98C524.087 139.605 524.157 139.199 524.157 138.761C524.157 138.324 524.087 137.916 523.948 137.538C523.809 137.161 523.594 136.855 523.305 136.622C523.015 136.389 522.646 136.273 522.197 136.273C521.748 136.273 521.379 136.389 521.089 136.622C520.799 136.855 520.585 137.161 520.445 137.538C520.306 137.916 520.237 138.324 520.237 138.761C520.237 139.199 520.306 139.605 520.445 139.98C520.585 140.355 520.799 140.658 521.089 140.888C521.379 141.118 521.748 141.233 522.197 141.233ZM529.169 142.136C528.624 142.136 528.142 141.999 527.725 141.723C527.307 141.445 526.98 141.053 526.745 140.547C526.509 140.038 526.391 139.438 526.391 138.744C526.391 138.057 526.509 137.46 526.745 136.955C526.98 136.449 527.309 136.058 527.729 135.783C528.15 135.507 528.635 135.369 529.186 135.369C529.613 135.369 529.949 135.44 530.196 135.582C530.446 135.722 530.637 135.881 530.767 136.06C530.901 136.236 531.005 136.381 531.078 136.494H531.164V133.273H532.169V142H531.198V140.994H531.078C531.005 141.114 530.9 141.264 530.763 141.446C530.627 141.625 530.432 141.786 530.179 141.928C529.926 142.067 529.59 142.136 529.169 142.136ZM529.306 141.233C529.709 141.233 530.05 141.128 530.328 140.918C530.607 140.705 530.819 140.411 530.963 140.036C531.108 139.658 531.181 139.222 531.181 138.727C531.181 138.239 531.11 137.811 530.968 137.445C530.826 137.075 530.615 136.788 530.337 136.584C530.059 136.376 529.715 136.273 529.306 136.273C528.88 136.273 528.525 136.382 528.24 136.601C527.959 136.817 527.748 137.111 527.605 137.483C527.466 137.852 527.397 138.267 527.397 138.727C527.397 139.193 527.468 139.616 527.61 139.997C527.755 140.375 527.968 140.676 528.249 140.901C528.533 141.122 528.885 141.233 529.306 141.233ZM538.276 139.324V135.455H539.282V142H538.276V140.892H538.208C538.054 141.224 537.816 141.507 537.492 141.74C537.168 141.97 536.759 142.085 536.265 142.085C535.855 142.085 535.492 141.996 535.174 141.817C534.855 141.635 534.605 141.362 534.424 140.999C534.242 140.632 534.151 140.17 534.151 139.614V135.455H535.157V139.545C535.157 140.023 535.29 140.403 535.557 140.688C535.827 140.972 536.171 141.114 536.588 141.114C536.838 141.114 537.093 141.05 537.351 140.922C537.613 140.794 537.831 140.598 538.007 140.334C538.186 140.07 538.276 139.733 538.276 139.324ZM543.783 142.136C543.169 142.136 542.641 141.991 542.197 141.702C541.754 141.412 541.413 141.013 541.175 140.504C540.936 139.996 540.817 139.415 540.817 138.761C540.817 138.097 540.939 137.51 541.183 137.001C541.43 136.49 541.774 136.091 542.214 135.804C542.658 135.514 543.175 135.369 543.766 135.369C544.226 135.369 544.641 135.455 545.01 135.625C545.379 135.795 545.682 136.034 545.918 136.341C546.153 136.648 546.3 137.006 546.357 137.415H545.351C545.274 137.116 545.104 136.852 544.839 136.622C544.578 136.389 544.226 136.273 543.783 136.273C543.391 136.273 543.047 136.375 542.751 136.58C542.459 136.781 542.23 137.067 542.065 137.436C541.903 137.803 541.822 138.233 541.822 138.727C541.822 139.233 541.902 139.673 542.061 140.048C542.223 140.423 542.45 140.714 542.743 140.922C543.038 141.129 543.385 141.233 543.783 141.233C544.044 141.233 544.281 141.188 544.494 141.097C544.707 141.006 544.888 140.875 545.036 140.705C545.183 140.534 545.288 140.33 545.351 140.091H546.357C546.3 140.477 546.159 140.825 545.935 141.135C545.713 141.442 545.419 141.686 545.053 141.868C544.689 142.047 544.266 142.136 543.783 142.136ZM550.673 135.455V136.307H547.281V135.455H550.673ZM548.27 133.886H549.276V140.125C549.276 140.409 549.317 140.622 549.399 140.764C549.484 140.903 549.592 140.997 549.723 141.045C549.857 141.091 549.997 141.114 550.145 141.114C550.256 141.114 550.347 141.108 550.418 141.097C550.489 141.082 550.545 141.071 550.588 141.062L550.793 141.966C550.724 141.991 550.629 142.017 550.507 142.043C550.385 142.071 550.23 142.085 550.043 142.085C549.759 142.085 549.48 142.024 549.207 141.902C548.938 141.78 548.713 141.594 548.534 141.344C548.358 141.094 548.27 140.778 548.27 140.398V133.886ZM505.154 157V148.273H510.422V149.21H506.211V152.159H510.149V153.097H506.211V156.062H510.49V157H505.154ZM513.196 153.062V157H512.19V150.455H513.162V151.477H513.247C513.4 151.145 513.633 150.878 513.946 150.676C514.258 150.472 514.662 150.369 515.156 150.369C515.599 150.369 515.987 150.46 516.319 150.642C516.652 150.821 516.91 151.094 517.095 151.46C517.279 151.824 517.372 152.284 517.372 152.841V157H516.366V152.909C516.366 152.395 516.233 151.994 515.966 151.707C515.699 151.418 515.332 151.273 514.866 151.273C514.545 151.273 514.258 151.342 514.005 151.482C513.755 151.621 513.558 151.824 513.413 152.091C513.268 152.358 513.196 152.682 513.196 153.062ZM521.852 159.591C521.366 159.591 520.948 159.528 520.599 159.403C520.249 159.281 519.958 159.119 519.725 158.918C519.495 158.719 519.312 158.506 519.175 158.278L519.977 157.716C520.067 157.835 520.183 157.972 520.322 158.125C520.461 158.281 520.651 158.416 520.893 158.53C521.137 158.646 521.457 158.705 521.852 158.705C522.38 158.705 522.816 158.577 523.16 158.321C523.504 158.065 523.675 157.665 523.675 157.119V155.79H523.59C523.516 155.909 523.411 156.057 523.275 156.233C523.141 156.406 522.948 156.561 522.695 156.697C522.445 156.831 522.107 156.898 521.681 156.898C521.153 156.898 520.678 156.773 520.258 156.523C519.84 156.273 519.509 155.909 519.265 155.432C519.023 154.955 518.903 154.375 518.903 153.693C518.903 153.023 519.021 152.439 519.256 151.942C519.492 151.442 519.82 151.055 520.241 150.783C520.661 150.507 521.147 150.369 521.698 150.369C522.124 150.369 522.462 150.44 522.712 150.582C522.965 150.722 523.158 150.881 523.292 151.06C523.428 151.236 523.533 151.381 523.607 151.494H523.71V150.455H524.681V157.188C524.681 157.75 524.553 158.207 524.298 158.56C524.045 158.915 523.704 159.175 523.275 159.339C522.849 159.507 522.374 159.591 521.852 159.591ZM521.817 155.994C522.221 155.994 522.562 155.902 522.84 155.717C523.119 155.533 523.33 155.267 523.475 154.92C523.62 154.574 523.692 154.159 523.692 153.676C523.692 153.205 523.621 152.788 523.479 152.428C523.337 152.067 523.127 151.784 522.849 151.58C522.57 151.375 522.227 151.273 521.817 151.273C521.391 151.273 521.036 151.381 520.752 151.597C520.471 151.812 520.259 152.102 520.117 152.466C519.978 152.83 519.908 153.233 519.908 153.676C519.908 154.131 519.979 154.533 520.121 154.882C520.266 155.229 520.479 155.501 520.761 155.7C521.045 155.896 521.397 155.994 521.817 155.994ZM526.522 157V150.455H527.528V157H526.522ZM527.033 149.364C526.837 149.364 526.668 149.297 526.526 149.163C526.387 149.03 526.317 148.869 526.317 148.682C526.317 148.494 526.387 148.334 526.526 148.2C526.668 148.067 526.837 148 527.033 148C527.229 148 527.397 148.067 527.536 148.2C527.678 148.334 527.749 148.494 527.749 148.682C527.749 148.869 527.678 149.03 527.536 149.163C527.397 149.297 527.229 149.364 527.033 149.364ZM530.375 153.062V157H529.37V150.455H530.341V151.477H530.426C530.58 151.145 530.813 150.878 531.125 150.676C531.438 150.472 531.841 150.369 532.336 150.369C532.779 150.369 533.167 150.46 533.499 150.642C533.831 150.821 534.09 151.094 534.275 151.46C534.459 151.824 534.551 152.284 534.551 152.841V157H533.546V152.909C533.546 152.395 533.412 151.994 533.145 151.707C532.878 151.418 532.512 151.273 532.046 151.273C531.725 151.273 531.438 151.342 531.185 151.482C530.935 151.621 530.738 151.824 530.593 152.091C530.448 152.358 530.375 152.682 530.375 153.062ZM539.134 157.136C538.503 157.136 537.959 156.997 537.501 156.719C537.047 156.438 536.696 156.045 536.449 155.543C536.205 155.037 536.082 154.449 536.082 153.778C536.082 153.108 536.205 152.517 536.449 152.006C536.696 151.491 537.04 151.091 537.48 150.804C537.923 150.514 538.44 150.369 539.031 150.369C539.372 150.369 539.709 150.426 540.041 150.54C540.374 150.653 540.676 150.838 540.949 151.094C541.222 151.347 541.439 151.682 541.601 152.099C541.763 152.517 541.844 153.031 541.844 153.642V154.068H536.798V153.199H540.821C540.821 152.83 540.747 152.5 540.599 152.21C540.455 151.92 540.247 151.692 539.977 151.524C539.71 151.357 539.395 151.273 539.031 151.273C538.631 151.273 538.284 151.372 537.991 151.571C537.702 151.767 537.479 152.023 537.322 152.338C537.166 152.653 537.088 152.991 537.088 153.352V153.932C537.088 154.426 537.173 154.845 537.344 155.189C537.517 155.53 537.757 155.79 538.064 155.969C538.371 156.145 538.727 156.233 539.134 156.233C539.398 156.233 539.636 156.196 539.849 156.122C540.065 156.045 540.251 155.932 540.408 155.781C540.564 155.628 540.685 155.437 540.77 155.21L541.741 155.483C541.639 155.812 541.467 156.102 541.226 156.352C540.984 156.599 540.686 156.793 540.331 156.932C539.976 157.068 539.577 157.136 539.134 157.136ZM546.118 157.136C545.487 157.136 544.943 156.997 544.486 156.719C544.031 156.438 543.68 156.045 543.433 155.543C543.189 155.037 543.067 154.449 543.067 153.778C543.067 153.108 543.189 152.517 543.433 152.006C543.68 151.491 544.024 151.091 544.464 150.804C544.908 150.514 545.425 150.369 546.016 150.369C546.357 150.369 546.693 150.426 547.026 150.54C547.358 150.653 547.661 150.838 547.933 151.094C548.206 151.347 548.423 151.682 548.585 152.099C548.747 152.517 548.828 153.031 548.828 153.642V154.068H543.783V153.199H547.805C547.805 152.83 547.732 152.5 547.584 152.21C547.439 151.92 547.232 151.692 546.962 151.524C546.695 151.357 546.379 151.273 546.016 151.273C545.615 151.273 545.268 151.372 544.976 151.571C544.686 151.767 544.463 152.023 544.307 152.338C544.151 152.653 544.072 152.991 544.072 153.352V153.932C544.072 154.426 544.158 154.845 544.328 155.189C544.501 155.53 544.741 155.79 545.048 155.969C545.355 156.145 545.712 156.233 546.118 156.233C546.382 156.233 546.621 156.196 546.834 156.122C547.05 156.045 547.236 155.932 547.392 155.781C547.548 155.628 547.669 155.437 547.754 155.21L548.726 155.483C548.624 155.812 548.452 156.102 548.21 156.352C547.969 156.599 547.67 156.793 547.315 156.932C546.96 157.068 546.561 157.136 546.118 157.136ZM550.358 157V150.455H551.33V151.443H551.398C551.517 151.119 551.733 150.857 552.045 150.655C552.358 150.453 552.71 150.352 553.102 150.352C553.176 150.352 553.268 150.354 553.379 150.357C553.49 150.359 553.574 150.364 553.631 150.369V151.392C553.597 151.384 553.518 151.371 553.396 151.354C553.277 151.334 553.151 151.324 553.017 151.324C552.699 151.324 552.415 151.391 552.165 151.524C551.918 151.655 551.722 151.837 551.577 152.07C551.435 152.3 551.364 152.562 551.364 152.858V157H550.358Z" fill="black"/>
<path d="M37.9103 147V138.273H40.8592C41.5439 138.273 42.1035 138.396 42.5382 138.643C42.9757 138.888 43.2995 139.219 43.5098 139.636C43.72 140.054 43.8251 140.52 43.8251 141.034C43.8251 141.548 43.72 142.016 43.5098 142.436C43.3024 142.857 42.9814 143.192 42.5467 143.442C42.112 143.689 41.5552 143.812 40.8762 143.812H38.7626V142.875H40.8422C41.3109 142.875 41.6873 142.794 41.9714 142.632C42.2555 142.47 42.4615 142.251 42.5893 141.976C42.72 141.697 42.7853 141.384 42.7853 141.034C42.7853 140.685 42.72 140.372 42.5893 140.097C42.4615 139.821 42.2541 139.605 41.9672 139.449C41.6802 139.29 41.2995 139.21 40.8251 139.21H38.9672V147H37.9103ZM45.5275 138.273H46.7889L49.7548 145.517H49.8571L52.823 138.273H54.0843V147H53.0957V140.369H53.0105L50.2832 147H49.3287L46.6014 140.369H46.5162V147H45.5275V138.273Z" fill="black"/>
<path d="M41.8074 240.273H42.9664L43.938 241.551L44.1937 241.892L45.6426 243.818H44.4835L43.5289 242.54L43.2903 242.216L41.8074 240.273ZM46.0005 238.636C46.0005 239.557 45.8343 240.352 45.502 241.023C45.1696 241.693 44.7136 242.21 44.1341 242.574C43.5545 242.938 42.8926 243.119 42.1483 243.119C41.4039 243.119 40.742 242.938 40.1625 242.574C39.5829 242.21 39.127 241.693 38.7946 241.023C38.4622 240.352 38.296 239.557 38.296 238.636C38.296 237.716 38.4622 236.92 38.7946 236.25C39.127 235.58 39.5829 235.062 40.1625 234.699C40.742 234.335 41.4039 234.153 42.1483 234.153C42.8926 234.153 43.5545 234.335 44.1341 234.699C44.7136 235.062 45.1696 235.58 45.502 236.25C45.8343 236.92 46.0005 237.716 46.0005 238.636ZM44.9778 238.636C44.9778 237.881 44.8514 237.243 44.5985 236.723C44.3485 236.203 44.0091 235.81 43.5801 235.543C43.1539 235.276 42.6767 235.142 42.1483 235.142C41.6199 235.142 41.1412 235.276 40.7122 235.543C40.286 235.81 39.9466 236.203 39.6937 236.723C39.4437 237.243 39.3187 237.881 39.3187 238.636C39.3187 239.392 39.4437 240.03 39.6937 240.55C39.9466 241.07 40.286 241.463 40.7122 241.73C41.1412 241.997 41.6199 242.131 42.1483 242.131C42.6767 242.131 43.1539 241.997 43.5801 241.73C44.0091 241.463 44.3485 241.07 44.5985 240.55C44.8514 240.03 44.9778 239.392 44.9778 238.636ZM47.7253 243H46.6174L49.8219 234.273H50.9128L54.1174 243H53.0094L50.4015 235.653H50.3333L47.7253 243ZM48.1344 239.591H52.6003V240.528H48.1344V239.591Z" fill="black"/>
<path d="M122.496 243H119.803V234.273H122.615C123.462 234.273 124.186 234.447 124.789 234.797C125.391 235.143 125.853 235.642 126.174 236.293C126.495 236.94 126.655 237.716 126.655 238.619C126.655 239.528 126.493 240.311 126.169 240.967C125.846 241.621 125.374 242.124 124.755 242.476C124.135 242.825 123.382 243 122.496 243ZM120.86 242.062H122.428C123.15 242.062 123.748 241.923 124.222 241.645C124.696 241.366 125.05 240.97 125.283 240.456C125.516 239.942 125.632 239.33 125.632 238.619C125.632 237.915 125.517 237.308 125.287 236.8C125.057 236.288 124.713 235.896 124.256 235.624C123.799 235.348 123.229 235.21 122.547 235.21H120.86V242.062ZM131.036 243.136C130.405 243.136 129.861 242.997 129.404 242.719C128.949 242.438 128.598 242.045 128.351 241.543C128.107 241.037 127.985 240.449 127.985 239.778C127.985 239.108 128.107 238.517 128.351 238.006C128.598 237.491 128.942 237.091 129.382 236.804C129.826 236.514 130.343 236.369 130.934 236.369C131.275 236.369 131.611 236.426 131.944 236.54C132.276 236.653 132.578 236.838 132.851 237.094C133.124 237.347 133.341 237.682 133.503 238.099C133.665 238.517 133.746 239.031 133.746 239.642V240.068H128.701V239.199H132.723C132.723 238.83 132.65 238.5 132.502 238.21C132.357 237.92 132.15 237.692 131.88 237.524C131.613 237.357 131.297 237.273 130.934 237.273C130.533 237.273 130.186 237.372 129.894 237.571C129.604 237.767 129.381 238.023 129.225 238.338C129.069 238.653 128.99 238.991 128.99 239.352V239.932C128.99 240.426 129.076 240.845 129.246 241.189C129.419 241.53 129.659 241.79 129.966 241.969C130.273 242.145 130.63 242.233 131.036 242.233C131.3 242.233 131.539 242.196 131.752 242.122C131.968 242.045 132.154 241.932 132.31 241.781C132.466 241.628 132.587 241.437 132.672 241.21L133.644 241.483C133.542 241.812 133.37 242.102 133.128 242.352C132.887 242.599 132.588 242.793 132.233 242.932C131.878 243.068 131.479 243.136 131.036 243.136ZM139.912 237.92L139.009 238.176C138.952 238.026 138.868 237.879 138.757 237.737C138.65 237.592 138.502 237.473 138.314 237.379C138.127 237.286 137.887 237.239 137.594 237.239C137.194 237.239 136.86 237.331 136.593 237.516C136.328 237.697 136.196 237.929 136.196 238.21C136.196 238.46 136.287 238.658 136.469 238.803C136.651 238.947 136.935 239.068 137.321 239.165L138.293 239.403C138.878 239.545 139.314 239.763 139.601 240.055C139.888 240.345 140.032 240.719 140.032 241.176C140.032 241.551 139.924 241.886 139.708 242.182C139.495 242.477 139.196 242.71 138.813 242.881C138.429 243.051 137.983 243.136 137.475 243.136C136.807 243.136 136.255 242.991 135.817 242.702C135.38 242.412 135.103 241.989 134.986 241.432L135.941 241.193C136.032 241.545 136.203 241.81 136.456 241.986C136.712 242.162 137.046 242.25 137.458 242.25C137.926 242.25 138.299 242.151 138.574 241.952C138.853 241.75 138.992 241.509 138.992 241.227C138.992 241 138.912 240.81 138.753 240.656C138.594 240.5 138.35 240.384 138.02 240.307L136.929 240.051C136.33 239.909 135.89 239.689 135.608 239.391C135.33 239.089 135.191 238.713 135.191 238.261C135.191 237.892 135.294 237.565 135.502 237.281C135.712 236.997 135.998 236.774 136.358 236.612C136.722 236.45 137.134 236.369 137.594 236.369C138.242 236.369 138.75 236.511 139.12 236.795C139.492 237.08 139.756 237.455 139.912 237.92ZM141.545 243V236.455H142.551V243H141.545ZM142.057 235.364C141.861 235.364 141.692 235.297 141.55 235.163C141.411 235.03 141.341 234.869 141.341 234.682C141.341 234.494 141.411 234.334 141.55 234.2C141.692 234.067 141.861 234 142.057 234C142.253 234 142.42 234.067 142.56 234.2C142.702 234.334 142.773 234.494 142.773 234.682C142.773 234.869 142.702 235.03 142.56 235.163C142.42 235.297 142.253 235.364 142.057 235.364ZM147.035 245.591C146.549 245.591 146.132 245.528 145.782 245.403C145.433 245.281 145.142 245.119 144.909 244.918C144.679 244.719 144.495 244.506 144.359 244.278L145.16 243.716C145.251 243.835 145.366 243.972 145.505 244.125C145.645 244.281 145.835 244.416 146.076 244.53C146.321 244.646 146.64 244.705 147.035 244.705C147.564 244.705 148 244.577 148.343 244.321C148.687 244.065 148.859 243.665 148.859 243.119V241.79H148.774C148.7 241.909 148.595 242.057 148.458 242.233C148.325 242.406 148.132 242.561 147.879 242.697C147.629 242.831 147.291 242.898 146.865 242.898C146.336 242.898 145.862 242.773 145.441 242.523C145.024 242.273 144.693 241.909 144.449 241.432C144.207 240.955 144.086 240.375 144.086 239.693C144.086 239.023 144.204 238.439 144.44 237.942C144.676 237.442 145.004 237.055 145.424 236.783C145.845 236.507 146.331 236.369 146.882 236.369C147.308 236.369 147.646 236.44 147.896 236.582C148.149 236.722 148.342 236.881 148.475 237.06C148.612 237.236 148.717 237.381 148.791 237.494H148.893V236.455H149.865V243.188C149.865 243.75 149.737 244.207 149.481 244.56C149.228 244.915 148.887 245.175 148.458 245.339C148.032 245.507 147.558 245.591 147.035 245.591ZM147.001 241.994C147.404 241.994 147.745 241.902 148.024 241.717C148.302 241.533 148.514 241.267 148.659 240.92C148.804 240.574 148.876 240.159 148.876 239.676C148.876 239.205 148.805 238.788 148.663 238.428C148.521 238.067 148.311 237.784 148.032 237.58C147.754 237.375 147.41 237.273 147.001 237.273C146.575 237.273 146.22 237.381 145.936 237.597C145.654 237.812 145.443 238.102 145.301 238.466C145.162 238.83 145.092 239.233 145.092 239.676C145.092 240.131 145.163 240.533 145.305 240.882C145.45 241.229 145.663 241.501 145.944 241.7C146.228 241.896 146.581 241.994 147.001 241.994ZM152.711 239.062V243H151.706V236.455H152.677V237.477H152.762C152.916 237.145 153.149 236.878 153.461 236.676C153.774 236.472 154.177 236.369 154.672 236.369C155.115 236.369 155.502 236.46 155.835 236.642C156.167 236.821 156.426 237.094 156.61 237.46C156.795 237.824 156.887 238.284 156.887 238.841V243H155.882V238.909C155.882 238.395 155.748 237.994 155.481 237.707C155.214 237.418 154.848 237.273 154.382 237.273C154.061 237.273 153.774 237.342 153.521 237.482C153.271 237.621 153.074 237.824 152.929 238.091C152.784 238.358 152.711 238.682 152.711 239.062ZM161.469 243.136C160.839 243.136 160.295 242.997 159.837 242.719C159.383 242.438 159.032 242.045 158.785 241.543C158.54 241.037 158.418 240.449 158.418 239.778C158.418 239.108 158.54 238.517 158.785 238.006C159.032 237.491 159.376 237.091 159.816 236.804C160.259 236.514 160.776 236.369 161.367 236.369C161.708 236.369 162.045 236.426 162.377 236.54C162.71 236.653 163.012 236.838 163.285 237.094C163.558 237.347 163.775 237.682 163.937 238.099C164.099 238.517 164.18 239.031 164.18 239.642V240.068H159.134V239.199H163.157C163.157 238.83 163.083 238.5 162.935 238.21C162.79 237.92 162.583 237.692 162.313 237.524C162.046 237.357 161.731 237.273 161.367 237.273C160.967 237.273 160.62 237.372 160.327 237.571C160.038 237.767 159.815 238.023 159.658 238.338C159.502 238.653 159.424 238.991 159.424 239.352V239.932C159.424 240.426 159.509 240.845 159.68 241.189C159.853 241.53 160.093 241.79 160.4 241.969C160.707 242.145 161.063 242.233 161.469 242.233C161.734 242.233 161.972 242.196 162.185 242.122C162.401 242.045 162.587 241.932 162.744 241.781C162.9 241.628 163.021 241.437 163.106 241.21L164.077 241.483C163.975 241.812 163.803 242.102 163.562 242.352C163.32 242.599 163.022 242.793 162.667 242.932C162.312 243.068 161.913 243.136 161.469 243.136ZM165.71 243V236.455H166.681V237.443H166.749C166.869 237.119 167.085 236.857 167.397 236.655C167.71 236.453 168.062 236.352 168.454 236.352C168.528 236.352 168.62 236.354 168.731 236.357C168.842 236.359 168.925 236.364 168.982 236.369V237.392C168.948 237.384 168.87 237.371 168.748 237.354C168.629 237.334 168.502 237.324 168.369 237.324C168.05 237.324 167.766 237.391 167.516 237.524C167.269 237.655 167.073 237.837 166.928 238.07C166.786 238.3 166.715 238.562 166.715 238.858V243H165.71Z" fill="black"/>
<path d="M134.313 138.273H135.37V144.051C135.37 144.648 135.23 145.18 134.948 145.649C134.67 146.115 134.276 146.483 133.768 146.753C133.259 147.02 132.663 147.153 131.978 147.153C131.294 147.153 130.697 147.02 130.188 146.753C129.68 146.483 129.285 146.115 129.004 145.649C128.725 145.18 128.586 144.648 128.586 144.051V138.273H129.643V143.966C129.643 144.392 129.737 144.771 129.924 145.104C130.112 145.433 130.379 145.693 130.725 145.884C131.075 146.071 131.492 146.165 131.978 146.165C132.464 146.165 132.882 146.071 133.231 145.884C133.58 145.693 133.847 145.433 134.032 145.104C134.22 144.771 134.313 144.392 134.313 143.966V138.273ZM138.537 138.273V147H137.481V138.273H138.537ZM143.605 137.864L140.793 148.312H139.872L142.685 137.864H143.605ZM150.661 138.273H151.718V144.051C151.718 144.648 151.577 145.18 151.296 145.649C151.018 146.115 150.624 146.483 150.116 146.753C149.607 147.02 149.01 147.153 148.326 147.153C147.641 147.153 147.045 147.02 146.536 146.753C146.028 146.483 145.633 146.115 145.351 145.649C145.073 145.18 144.934 144.648 144.934 144.051V138.273H145.991V143.966C145.991 144.392 146.084 144.771 146.272 145.104C146.459 145.433 146.726 145.693 147.073 145.884C147.422 146.071 147.84 146.165 148.326 146.165C148.812 146.165 149.229 146.071 149.579 145.884C149.928 145.693 150.195 145.433 150.38 145.104C150.567 144.771 150.661 144.392 150.661 143.966V138.273ZM154.34 138.273L156.59 141.903H156.658L158.908 138.273H160.152L157.408 142.636L160.152 147H158.908L156.658 143.438H156.59L154.34 147H153.095L155.908 142.636L153.095 138.273H154.34Z" fill="black"/>
<path d="M367.707 142.707C368.098 142.317 368.098 141.683 367.707 141.293L361.343 134.929C360.953 134.538 360.319 134.538 359.929 134.929C359.538 135.319 359.538 135.953 359.929 136.343L365.586 142L359.929 147.657C359.538 148.047 359.538 148.681 359.929 149.071C360.319 149.462 360.953 149.462 361.343 149.071L367.707 142.707ZM217 142V143H367V142V141H217V142Z" fill="black"/>
</svg>
